# xmcd
#
# Track frame offsets:
#	150
#	15079
#	33846
#	51175
#	66513
#	83522
#	101254
#	123289
#	140063
#	148558
#	164468
#	185911
#	205551
#
# Disc length: 3128 seconds
#
# Revision: 1
# Processed by: cddbd v1.5.2PL0 Copyright (c) Steve Scherf et al.
# Submitted via: audiograbber 1.83.01
#
DISCID=aa0c360d
DTITLE=Mikel Knight - The Country Rap King
DYEAR=2010
DGENRE=Country
TTITLE0=Big City Country Boi
TTITLE1=Whiskey Drinkin
TTITLE2=Saddle Up Shawty
TTITLE3=Cowboys and Cadillacs
TTITLE4=Welcome 2 The Rodeo
TTITLE5=Texas Bad Boi
TTITLE6=Drinkin About You
TTITLE7=Free
TTITLE8=All On My Own
TTITLE9=Pack Yo Bags
TTITLE10=Hoot N Holla
TTITLE11=The Last Dance
TTITLE12=Dash Fulla Cowboy Hats Ft. The Duke Boys and The Moonshine Bandits
EXTD=
EXTT0=
EXTT1=
EXTT2=
EXTT3=
EXTT4=
EXTT5=
EXTT6=
EXTT7=
EXTT8=
EXTT9=
EXTT10=
EXTT11=
EXTT12=
PLAYORDER=
